<svg width="14" height="14" viewBox="0 0 14 14" fill="none" xmlns="http://www.w3.org/2000/svg">
<path d="M13.45 4.52988C13.0986 3.69818 12.5892 2.94255 11.95 2.30488C11.3123 1.66568 10.5567 1.15626 9.725 0.804883C8.86094 0.439258 7.94531 0.254883 7 0.254883C6.05469 0.254883 5.13906 0.439258 4.275 0.804883C3.4433 1.15626 2.68767 1.66568 2.05 2.30488C1.41079 2.94255 0.901382 3.69818 0.55 4.52988C0.184375 5.39395 0 6.30957 0 7.25488C0 9.32832 0.910937 11.2814 2.49844 12.6158L2.525 12.6377C2.61563 12.7127 2.72969 12.7549 2.84687 12.7549H11.1547C11.2719 12.7549 11.3859 12.7127 11.4766 12.6377L11.5031 12.6158C13.0891 11.2814 14 9.32832 14 7.25488C14 6.30957 13.8141 5.39395 13.45 4.52988ZM10.8969 11.5674H3.10313C2.49937 11.023 2.01682 10.3577 1.68681 9.6148C1.35679 8.87186 1.18667 8.06783 1.1875 7.25488C1.1875 5.70176 1.79219 4.24238 2.89062 3.14551C3.98906 2.04707 5.44844 1.44238 7 1.44238C8.55313 1.44238 10.0125 2.04707 11.1094 3.14551C12.2078 4.24395 12.8125 5.70332 12.8125 7.25488C12.8125 8.90488 12.1172 10.4658 10.8969 11.5674ZM8.74219 5.09082C8.71869 5.06756 8.68697 5.05451 8.65391 5.05451C8.62084 5.05451 8.58912 5.06756 8.56563 5.09082L7.24531 6.41113C6.95312 6.33301 6.62969 6.40801 6.4 6.6377C6.31865 6.7189 6.2541 6.81534 6.21007 6.92152C6.16603 7.02769 6.14336 7.1415 6.14336 7.25645C6.14336 7.37139 6.16603 7.4852 6.21007 7.59138C6.2541 7.69755 6.31865 7.794 6.4 7.8752C6.4812 7.95655 6.57765 8.02109 6.68382 8.06513C6.78999 8.10917 6.90381 8.13183 7.01875 8.13183C7.13369 8.13183 7.24751 8.10917 7.35368 8.06513C7.45985 8.02109 7.5563 7.95655 7.6375 7.8752C7.74632 7.7667 7.82458 7.63141 7.86436 7.48298C7.90414 7.33455 7.90404 7.17826 7.86406 7.02988L9.18437 5.70957C9.23281 5.66113 9.23281 5.58145 9.18437 5.53301L8.74219 5.09082ZM6.65625 3.50488H7.34375C7.4125 3.50488 7.46875 3.44863 7.46875 3.37988V2.12988C7.46875 2.06113 7.4125 2.00488 7.34375 2.00488H6.65625C6.5875 2.00488 6.53125 2.06113 6.53125 2.12988V3.37988C6.53125 3.44863 6.5875 3.50488 6.65625 3.50488ZM10.7188 6.91113V7.59863C10.7188 7.66738 10.775 7.72363 10.8438 7.72363H12.0938C12.1625 7.72363 12.2188 7.66738 12.2188 7.59863V6.91113C12.2188 6.84238 12.1625 6.78613 12.0938 6.78613H10.8438C10.775 6.78613 10.7188 6.84238 10.7188 6.91113ZM10.9172 3.82988L10.4312 3.34395C10.4078 3.32068 10.376 3.30763 10.343 3.30763C10.3099 3.30763 10.2782 3.32068 10.2547 3.34395L9.37031 4.22832C9.34705 4.25181 9.334 4.28354 9.334 4.3166C9.334 4.34966 9.34705 4.38139 9.37031 4.40488L9.85625 4.89082C9.90469 4.93926 9.98438 4.93926 10.0328 4.89082L10.9172 4.00645C10.9656 3.95801 10.9656 3.87832 10.9172 3.82988ZM3.75156 3.34395C3.72807 3.32068 3.69634 3.30763 3.66328 3.30763C3.63022 3.30763 3.59849 3.32068 3.575 3.34395L3.08906 3.82988C3.0658 3.85338 3.05275 3.8851 3.05275 3.91816C3.05275 3.95123 3.0658 3.98295 3.08906 4.00645L3.97344 4.89082C4.02187 4.93926 4.10156 4.93926 4.15 4.89082L4.63594 4.40488C4.68438 4.35645 4.68438 4.27676 4.63594 4.22832L3.75156 3.34395ZM3.09375 6.78613H1.84375C1.775 6.78613 1.71875 6.84238 1.71875 6.91113V7.59863C1.71875 7.66738 1.775 7.72363 1.84375 7.72363H3.09375C3.1625 7.72363 3.21875 7.66738 3.21875 7.59863V6.91113C3.21875 6.84238 3.1625 6.78613 3.09375 6.78613Z" fill="#1890FF"/>
</svg>
