<svg width="14" height="14" viewBox="0 0 14 14" fill="none" xmlns="http://www.w3.org/2000/svg">
<g clip-path="url(#clip0_181381_8723)">
<rect width="14" height="14" fill="white" fill-opacity="0.01"/>
<path d="M11.1562 10.5H10.8281V5.85156C10.8281 3.92246 9.40215 2.32695 7.54688 2.06172V1.53125C7.54688 1.2291 7.30215 0.984375 7 0.984375C6.69785 0.984375 6.45312 1.2291 6.45312 1.53125V2.06172C4.59785 2.32695 3.17188 3.92246 3.17188 5.85156V10.5H2.84375C2.60176 10.5 2.40625 10.6955 2.40625 10.9375V11.375C2.40625 11.4352 2.45547 11.4844 2.51562 11.4844H5.46875C5.46875 12.3293 6.15508 13.0156 7 13.0156C7.84492 13.0156 8.53125 12.3293 8.53125 11.4844H11.4844C11.5445 11.4844 11.5938 11.4352 11.5938 11.375V10.9375C11.5938 10.6955 11.3982 10.5 11.1562 10.5ZM7 12.1406C6.6377 12.1406 6.34375 11.8467 6.34375 11.4844H7.65625C7.65625 11.8467 7.3623 12.1406 7 12.1406Z" fill="black" fill-opacity="0.45"/>
</g>
<defs>
<clipPath id="clip0_181381_8723">
<rect width="14" height="14" fill="white"/>
</clipPath>
</defs>
</svg>
