<svg width="14" height="14" viewBox="0 0 14 14" fill="none" xmlns="http://www.w3.org/2000/svg">
<path d="M7.00632 5.34053C6.59753 5.34053 6.21472 5.49912 5.92488 5.78896C5.6364 6.07881 5.47644 6.46162 5.47644 6.87041C5.47644 7.2792 5.6364 7.66201 5.92488 7.95186C6.21472 8.24033 6.59753 8.40029 7.00632 8.40029C7.41511 8.40029 7.79792 8.24033 8.08777 7.95186C8.37624 7.66201 8.53621 7.2792 8.53621 6.87041C8.53621 6.46162 8.37624 6.07881 8.08777 5.78896C7.9462 5.64631 7.7777 5.5332 7.59205 5.45622C7.4064 5.37924 7.2073 5.33991 7.00632 5.34053ZM12.6432 8.56025L11.7491 7.796C11.7915 7.53623 11.8134 7.271 11.8134 7.00713C11.8134 6.74326 11.7915 6.47666 11.7491 6.21826L12.6432 5.454C12.7108 5.39618 12.7591 5.31917 12.7818 5.2332C12.8045 5.14724 12.8006 5.05639 12.7704 4.97275L12.7581 4.93721C12.512 4.24909 12.1433 3.61125 11.6698 3.05459L11.6452 3.02588C11.5877 2.95827 11.5111 2.90968 11.4254 2.88649C11.3397 2.86331 11.2491 2.86662 11.1653 2.896L10.0552 3.29111C9.64499 2.95479 9.18835 2.68955 8.69343 2.50498L8.47878 1.34424C8.46259 1.2568 8.42017 1.17635 8.35717 1.11359C8.29416 1.05083 8.21355 1.00873 8.12605 0.992871L8.08914 0.986035C7.3782 0.85752 6.62898 0.85752 5.91804 0.986035L5.88113 0.992871C5.79362 1.00873 5.71301 1.05083 5.65001 1.11359C5.587 1.17635 5.54459 1.2568 5.52839 1.34424L5.31238 2.51045C4.82214 2.69649 4.36546 2.96108 3.96023 3.29385L2.84187 2.896C2.75815 2.86639 2.6674 2.86295 2.58169 2.88615C2.49597 2.90935 2.41934 2.95809 2.36199 3.02588L2.33738 3.05459C1.86473 3.61184 1.49611 4.24952 1.2491 4.93721L1.23679 4.97275C1.17527 5.14365 1.22586 5.33506 1.36394 5.454L2.26902 6.22646C2.22664 6.4835 2.20613 6.746 2.20613 7.00576C2.20613 7.26826 2.22664 7.53076 2.26902 7.78506L1.36668 8.55752C1.29913 8.61534 1.25079 8.69236 1.22808 8.77832C1.20536 8.86429 1.20936 8.95513 1.23953 9.03877L1.25183 9.07432C1.49929 9.76201 1.86433 10.3978 2.34011 10.9569L2.36472 10.9856C2.42222 11.0532 2.49885 11.1018 2.58451 11.125C2.67018 11.1482 2.76086 11.1449 2.8446 11.1155L3.96296 10.7177C4.37039 11.0526 4.82429 11.3179 5.31511 11.5011L5.53113 12.6673C5.54732 12.7547 5.58974 12.8352 5.65274 12.8979C5.71575 12.9607 5.79636 13.0028 5.88386 13.0187L5.92078 13.0255C6.63871 13.1547 7.37394 13.1547 8.09187 13.0255L8.12878 13.0187C8.21629 13.0028 8.2969 12.9607 8.3599 12.8979C8.42291 12.8352 8.46532 12.7547 8.48152 12.6673L8.69617 11.5065C9.19109 11.3206 9.64773 11.0567 10.0579 10.7204L11.168 11.1155C11.2518 11.1451 11.3425 11.1486 11.4282 11.1254C11.5139 11.1022 11.5906 11.0534 11.6479 10.9856L11.6725 10.9569C12.1483 10.395 12.5134 9.76201 12.7608 9.07432L12.7731 9.03877C12.8319 8.86924 12.7813 8.6792 12.6432 8.56025ZM7.00632 9.27393C5.67878 9.27393 4.60281 8.19795 4.60281 6.87041C4.60281 5.54287 5.67878 4.46689 7.00632 4.46689C8.33386 4.46689 9.40984 5.54287 9.40984 6.87041C9.40984 8.19795 8.33386 9.27393 7.00632 9.27393Z" fill="black" fill-opacity="0.45"/>
</svg>
