<svg width="14" height="14" viewBox="0 0 14 14" fill="none" xmlns="http://www.w3.org/2000/svg">
<path d="M12.0312 1.53125H1.96875C1.72676 1.53125 1.53125 1.72676 1.53125 1.96875V12.0312C1.53125 12.2732 1.72676 12.4688 1.96875 12.4688H12.0312C12.2732 12.4688 12.4688 12.2732 12.4688 12.0312V1.96875C12.4688 1.72676 12.2732 1.53125 12.0312 1.53125ZM5.03125 10.1719C5.03125 10.232 4.98203 10.2812 4.92188 10.2812H3.82812C3.76797 10.2812 3.71875 10.232 3.71875 10.1719V3.82812C3.71875 3.76797 3.76797 3.71875 3.82812 3.71875H4.92188C4.98203 3.71875 5.03125 3.76797 5.03125 3.82812V10.1719ZM7.65625 6.34375C7.65625 6.40391 7.60703 6.45312 7.54688 6.45312H6.45312C6.39297 6.45312 6.34375 6.40391 6.34375 6.34375V3.82812C6.34375 3.76797 6.39297 3.71875 6.45312 3.71875H7.54688C7.60703 3.71875 7.65625 3.76797 7.65625 3.82812V6.34375ZM10.2812 7.32812C10.2812 7.38828 10.232 7.4375 10.1719 7.4375H9.07812C9.01797 7.4375 8.96875 7.38828 8.96875 7.32812V3.82812C8.96875 3.76797 9.01797 3.71875 9.07812 3.71875H10.1719C10.232 3.71875 10.2812 3.76797 10.2812 3.82812V7.32812Z" fill="black" fill-opacity="0.45"/>
</svg>
