<svg width="95" height="14" viewBox="0 0 95 14" fill="none" xmlns="http://www.w3.org/2000/svg">
<path d="M7.80469 9.65137C7.80469 9.42285 7.76953 9.21777 7.69922 9.03613C7.63477 8.84863 7.51172 8.67871 7.33008 8.52637C7.14844 8.36816 6.89355 8.21289 6.56543 8.06055C6.2373 7.9082 5.8125 7.75 5.29102 7.58594C4.71094 7.39844 4.16016 7.1875 3.63867 6.95312C3.12305 6.71875 2.66602 6.44629 2.26758 6.13574C1.875 5.81934 1.56445 5.45312 1.33594 5.03711C1.11328 4.62109 1.00195 4.1377 1.00195 3.58691C1.00195 3.05371 1.11914 2.57031 1.35352 2.13672C1.58789 1.69727 1.91602 1.32227 2.33789 1.01172C2.75977 0.695312 3.25781 0.452148 3.83203 0.282227C4.41211 0.112305 5.04785 0.0273438 5.73926 0.0273438C6.68262 0.0273438 7.50586 0.197266 8.20898 0.537109C8.91211 0.876953 9.45703 1.34277 9.84375 1.93457C10.2363 2.52637 10.4326 3.20312 10.4326 3.96484H7.81348C7.81348 3.58984 7.73438 3.26172 7.57617 2.98047C7.42383 2.69336 7.18945 2.46777 6.87305 2.30371C6.5625 2.13965 6.16992 2.05762 5.69531 2.05762C5.23828 2.05762 4.85742 2.12793 4.55273 2.26855C4.24805 2.40332 4.01953 2.58789 3.86719 2.82227C3.71484 3.05078 3.63867 3.30859 3.63867 3.5957C3.63867 3.8125 3.69141 4.00879 3.79688 4.18457C3.9082 4.36035 4.07227 4.52441 4.28906 4.67676C4.50586 4.8291 4.77246 4.97266 5.08887 5.10742C5.40527 5.24219 5.77148 5.37402 6.1875 5.50293C6.88477 5.71387 7.49707 5.95117 8.02441 6.21484C8.55762 6.47852 9.00293 6.77441 9.36035 7.10254C9.71777 7.43066 9.9873 7.80273 10.1689 8.21875C10.3506 8.63477 10.4414 9.10645 10.4414 9.63379C10.4414 10.1904 10.333 10.6885 10.1162 11.1279C9.89941 11.5674 9.58594 11.9395 9.17578 12.2441C8.76562 12.5488 8.27637 12.7803 7.70801 12.9385C7.13965 13.0967 6.50391 13.1758 5.80078 13.1758C5.16797 13.1758 4.54395 13.0938 3.92871 12.9297C3.31348 12.7598 2.75391 12.5049 2.25 12.165C1.75195 11.8252 1.35352 11.3916 1.05469 10.8643C0.755859 10.3369 0.606445 9.71289 0.606445 8.99219H3.25195C3.25195 9.39062 3.31348 9.72754 3.43652 10.0029C3.55957 10.2783 3.73242 10.501 3.95508 10.6709C4.18359 10.8408 4.45312 10.9639 4.76367 11.04C5.08008 11.1162 5.42578 11.1543 5.80078 11.1543C6.25781 11.1543 6.63281 11.0898 6.92578 10.9609C7.22461 10.832 7.44434 10.6533 7.58496 10.4248C7.73145 10.1963 7.80469 9.93848 7.80469 9.65137ZM13.9922 0.203125L16.6641 6.03906L19.3359 0.203125H22.21L18 8.3418V13H15.3281V8.3418L11.1094 0.203125H13.9922ZM33.7939 0.203125V13H31.1572L26.0156 4.42188V13H23.3789V0.203125H26.0156L31.166 8.79004V0.203125H33.7939ZM44.6748 10.9434V13H37.8633V10.9434H44.6748ZM38.7246 0.203125V13H36.0879V0.203125H38.7246ZM43.7871 5.41504V7.41895H37.8633V5.41504H43.7871ZM44.666 0.203125V2.26855H37.8633V0.203125H44.666ZM53.6309 8.75488H56.2588C56.2061 9.61621 55.9688 10.3809 55.5469 11.0488C55.1309 11.7168 54.5479 12.2383 53.7979 12.6133C53.0537 12.9883 52.1572 13.1758 51.1084 13.1758C50.2881 13.1758 49.5527 13.0352 48.9023 12.7539C48.252 12.4668 47.6953 12.0566 47.2324 11.5234C46.7754 10.9902 46.4268 10.3457 46.1865 9.58984C45.9463 8.83398 45.8262 7.9873 45.8262 7.0498V6.16211C45.8262 5.22461 45.9492 4.37793 46.1953 3.62207C46.4473 2.86035 46.8047 2.21289 47.2676 1.67969C47.7363 1.14648 48.2959 0.736328 48.9463 0.449219C49.5967 0.162109 50.3232 0.0185547 51.126 0.0185547C52.1924 0.0185547 53.0918 0.211914 53.8242 0.598633C54.5625 0.985352 55.1338 1.51855 55.5381 2.19824C55.9482 2.87793 56.1943 3.65137 56.2764 4.51855H53.6396C53.6104 4.00293 53.5078 3.56641 53.332 3.20898C53.1562 2.8457 52.8896 2.57324 52.5322 2.3916C52.1807 2.2041 51.7119 2.11035 51.126 2.11035C50.6865 2.11035 50.3027 2.19238 49.9746 2.35645C49.6465 2.52051 49.3711 2.76953 49.1484 3.10352C48.9258 3.4375 48.7588 3.85938 48.6475 4.36914C48.542 4.87305 48.4893 5.46484 48.4893 6.14453V7.0498C48.4893 7.71191 48.5391 8.29492 48.6387 8.79883C48.7383 9.29688 48.8906 9.71875 49.0957 10.0645C49.3066 10.4043 49.5762 10.6621 49.9043 10.8379C50.2383 11.0078 50.6396 11.0928 51.1084 11.0928C51.6592 11.0928 52.1133 11.0049 52.4707 10.8291C52.8281 10.6533 53.1006 10.3926 53.2881 10.0469C53.4814 9.70117 53.5957 9.27051 53.6309 8.75488ZM63.4482 0.203125V13H60.8203V0.203125H63.4482ZM67.3857 0.203125V2.26855H56.9443V0.203125H67.3857ZM71.6924 0.203125V13H69.0645V0.203125H71.6924ZM76.7988 0.203125V13H74.1621V0.203125H76.7988ZM84.4629 0.203125L79.3916 6.52246L76.4648 9.66895L75.9902 7.17285L77.9678 4.46582L81.2285 0.203125H84.4629ZM81.4658 13L77.6953 7.08496L79.6465 5.4502L84.5859 13H81.4658ZM92.2676 9.65137C92.2676 9.42285 92.2324 9.21777 92.1621 9.03613C92.0977 8.84863 91.9746 8.67871 91.793 8.52637C91.6113 8.36816 91.3564 8.21289 91.0283 8.06055C90.7002 7.9082 90.2754 7.75 89.7539 7.58594C89.1738 7.39844 88.623 7.1875 88.1016 6.95312C87.5859 6.71875 87.1289 6.44629 86.7305 6.13574C86.3379 5.81934 86.0273 5.45312 85.7988 5.03711C85.5762 4.62109 85.4648 4.1377 85.4648 3.58691C85.4648 3.05371 85.582 2.57031 85.8164 2.13672C86.0508 1.69727 86.3789 1.32227 86.8008 1.01172C87.2227 0.695312 87.7207 0.452148 88.2949 0.282227C88.875 0.112305 89.5107 0.0273438 90.2021 0.0273438C91.1455 0.0273438 91.9688 0.197266 92.6719 0.537109C93.375 0.876953 93.9199 1.34277 94.3066 1.93457C94.6992 2.52637 94.8955 3.20312 94.8955 3.96484H92.2764C92.2764 3.58984 92.1973 3.26172 92.0391 2.98047C91.8867 2.69336 91.6523 2.46777 91.3359 2.30371C91.0254 2.13965 90.6328 2.05762 90.1582 2.05762C89.7012 2.05762 89.3203 2.12793 89.0156 2.26855C88.7109 2.40332 88.4824 2.58789 88.3301 2.82227C88.1777 3.05078 88.1016 3.30859 88.1016 3.5957C88.1016 3.8125 88.1543 4.00879 88.2598 4.18457C88.3711 4.36035 88.5352 4.52441 88.752 4.67676C88.9688 4.8291 89.2354 4.97266 89.5518 5.10742C89.8682 5.24219 90.2344 5.37402 90.6504 5.50293C91.3477 5.71387 91.96 5.95117 92.4873 6.21484C93.0205 6.47852 93.4658 6.77441 93.8232 7.10254C94.1807 7.43066 94.4502 7.80273 94.6318 8.21875C94.8135 8.63477 94.9043 9.10645 94.9043 9.63379C94.9043 10.1904 94.7959 10.6885 94.5791 11.1279C94.3623 11.5674 94.0488 11.9395 93.6387 12.2441C93.2285 12.5488 92.7393 12.7803 92.1709 12.9385C91.6025 13.0967 90.9668 13.1758 90.2637 13.1758C89.6309 13.1758 89.0068 13.0938 88.3916 12.9297C87.7764 12.7598 87.2168 12.5049 86.7129 12.165C86.2148 11.8252 85.8164 11.3916 85.5176 10.8643C85.2188 10.3369 85.0693 9.71289 85.0693 8.99219H87.7148C87.7148 9.39062 87.7764 9.72754 87.8994 10.0029C88.0225 10.2783 88.1953 10.501 88.418 10.6709C88.6465 10.8408 88.916 10.9639 89.2266 11.04C89.543 11.1162 89.8887 11.1543 90.2637 11.1543C90.7207 11.1543 91.0957 11.0898 91.3887 10.9609C91.6875 10.832 91.9072 10.6533 92.0479 10.4248C92.1943 10.1963 92.2676 9.93848 92.2676 9.65137Z" fill="white"/>
</svg>
